<svg width="235" height="36" viewBox="0 0 235 36" fill="none" xmlns="http://www.w3.org/2000/svg">
<path d="M12.5111 19.4337C13.8086 19.4337 14.8589 19.8594 15.6621 20.7107C16.4653 21.5466 16.8669 22.6843 16.8669 24.1238V31.3447H14.8512V24.1935C14.8512 23.2957 14.6195 22.5992 14.1561 22.1038C13.6927 21.6085 13.0749 21.3609 12.3026 21.3609C11.4376 21.3609 10.7426 21.6549 10.2174 22.2431C9.70771 22.8159 9.45285 23.6982 9.45285 24.89V31.3447H7.43717V24.1935C7.43717 23.2957 7.21321 22.5992 6.76528 22.1038C6.33279 21.6085 5.73813 21.3609 4.98128 21.3609C4.13176 21.3609 3.42125 21.6549 2.84976 22.2431C2.29371 22.8313 2.01568 23.7136 2.01568 24.89V31.3447H0V19.7356H2.01568V21.2912C2.80342 20.0529 3.95413 19.4337 5.46783 19.4337C7.02786 19.4337 8.16313 20.0916 8.87363 21.4073C9.67682 20.0916 10.8893 19.4337 12.5111 19.4337Z" fill="#A6D5CC"/>
<path d="M29.2536 19.7356H31.2693V31.3447H29.2536V29.348C28.2497 30.8804 26.79 31.6466 24.8747 31.6466C23.2529 31.6466 21.8705 31.0584 20.7275 29.882C19.5845 28.6901 19.013 27.2428 19.013 25.5401C19.013 23.8375 19.5845 22.3979 20.7275 21.2215C21.8705 20.0297 23.2529 19.4337 24.8747 19.4337C26.79 19.4337 28.2497 20.1999 29.2536 21.7323V19.7356ZM25.1296 29.6962C26.3035 29.6962 27.2843 29.3015 28.072 28.5121C28.8598 27.7072 29.2536 26.7165 29.2536 25.5401C29.2536 24.3638 28.8598 23.3808 28.072 22.5914C27.2843 21.7865 26.3035 21.3841 25.1296 21.3841C23.9712 21.3841 22.9981 21.7865 22.2103 22.5914C21.4226 23.3808 21.0287 24.3638 21.0287 25.5401C21.0287 26.7165 21.4226 27.7072 22.2103 28.5121C22.9981 29.3015 23.9712 29.6962 25.1296 29.6962Z" fill="#A6D5CC"/>
<path d="M40.0923 19.4337C41.4515 19.4337 42.5404 19.8671 43.3591 20.734C44.1777 21.5853 44.587 22.7462 44.587 24.2167V31.3447H42.5713V24.3328C42.5713 23.3886 42.3165 22.6611 41.8068 22.1503C41.297 21.624 40.5943 21.3609 39.6984 21.3609C38.6944 21.3609 37.8835 21.6782 37.2657 22.3128C36.6478 22.932 36.3389 23.8916 36.3389 25.1919V31.3447H34.3232V19.7356H36.3389V21.4073C37.1576 20.0916 38.4087 19.4337 40.0923 19.4337Z" fill="#A6D5CC"/>
<path d="M55.3941 19.7356H57.4098V31.3447H55.3941V29.673C54.5755 30.9887 53.3244 31.6466 51.6408 31.6466C50.2816 31.6466 49.1926 31.2209 48.374 30.3696C47.5554 29.5027 47.1461 28.3341 47.1461 26.8636V19.7356H49.1618V26.7475C49.1618 27.6917 49.4166 28.427 49.9263 28.9532C50.436 29.464 51.1388 29.7194 52.0347 29.7194C53.0387 29.7194 53.8496 29.4099 54.4674 28.7907C55.0852 28.1561 55.3941 27.1886 55.3941 25.8884V19.7356Z" fill="#A6D5CC"/>
<path d="M66.433 16.7404C64.3941 16.5701 63.3747 17.4524 63.3747 19.3873V19.7356H66.433V21.6859H63.3747V31.3447H61.359V21.6859H59.5055V19.7356H61.359V19.3873C61.359 17.8239 61.7915 16.6398 62.6565 15.8349C63.5369 15.03 64.7957 14.6817 66.433 14.7901V16.7404Z" fill="#A6D5CC"/>
<path d="M76.9261 19.7356H78.9417V31.3447H76.9261V29.348C75.9221 30.8804 74.4625 31.6466 72.5472 31.6466C70.9254 31.6466 69.543 31.0584 68.4 29.882C67.257 28.6901 66.6855 27.2428 66.6855 25.5401C66.6855 23.8375 67.257 22.3979 68.4 21.2215C69.543 20.0297 70.9254 19.4337 72.5472 19.4337C74.4625 19.4337 75.9221 20.1999 76.9261 21.7323V19.7356ZM72.802 29.6962C73.9759 29.6962 74.9567 29.3015 75.7445 28.5121C76.5322 27.7072 76.9261 26.7165 76.9261 25.5401C76.9261 24.3638 76.5322 23.3808 75.7445 22.5914C74.9567 21.7865 73.9759 21.3841 72.802 21.3841C71.6436 21.3841 70.6705 21.7865 69.8828 22.5914C69.095 23.3808 68.7012 24.3638 68.7012 25.5401C68.7012 26.7165 69.095 27.7072 69.8828 28.5121C70.6705 29.3015 71.6436 29.6962 72.802 29.6962Z" fill="#A6D5CC"/>
<path d="M87.4403 31.6466C85.695 31.6466 84.2431 31.0661 83.0846 29.9052C81.9262 28.7288 81.347 27.2738 81.347 25.5401C81.347 23.8065 81.9262 22.3592 83.0846 21.1983C84.2431 20.0219 85.695 19.4337 87.4403 19.4337C88.5833 19.4337 89.6105 19.7124 90.5218 20.2696C91.4331 20.8114 92.1127 21.5466 92.5606 22.4753L90.8693 23.4505C90.5758 22.8313 90.1202 22.336 89.5024 21.9645C88.9 21.593 88.2126 21.4073 87.4403 21.4073C86.2819 21.4073 85.3088 21.802 84.5211 22.5914C83.7488 23.3808 83.3626 24.3638 83.3626 25.5401C83.3626 26.7011 83.7488 27.6762 84.5211 28.4657C85.3088 29.2551 86.2819 29.6498 87.4403 29.6498C88.2126 29.6498 88.9077 29.4718 89.5255 29.1158C90.1434 28.7443 90.6145 28.249 90.9388 27.6298L92.6533 28.6282C92.159 29.5414 91.4485 30.2767 90.5218 30.8339C89.595 31.3757 88.5679 31.6466 87.4403 31.6466Z" fill="#A6D5CC"/>
<path d="M100.945 21.6859H97.8639V27.9781C97.8639 28.5508 97.972 28.961 98.1883 29.2086C98.42 29.4408 98.7675 29.5647 99.2309 29.5801C99.6943 29.5801 100.266 29.5647 100.945 29.5337V31.3447C99.1845 31.5769 97.8948 31.4376 97.0762 30.9268C96.2576 30.4005 95.8482 29.4176 95.8482 27.9781V21.6859H93.5545V19.7356H95.8482V17.0887L97.8639 16.485V19.7356H100.945V21.6859Z" fill="#A6D5CC"/>
<path d="M111.393 19.7356H113.409V31.3447H111.393V29.673C110.574 30.9887 109.323 31.6466 107.64 31.6466C106.28 31.6466 105.191 31.2209 104.373 30.3696C103.554 29.5027 103.145 28.3341 103.145 26.8636V19.7356H105.16V26.7475C105.16 27.6917 105.415 28.427 105.925 28.9532C106.435 29.464 107.138 29.7194 108.033 29.7194C109.037 29.7194 109.848 29.4099 110.466 28.7907C111.084 28.1561 111.393 27.1886 111.393 25.8884V19.7356Z" fill="#A6D5CC"/>
<path d="M118.493 21.6859C119.157 20.2464 120.362 19.5266 122.107 19.5266V21.6395C121.119 21.593 120.269 21.8562 119.559 22.4289C118.848 23.0016 118.493 23.9226 118.493 25.1919V31.3447H116.477V19.7356H118.493V21.6859Z" fill="#A6D5CC"/>
<path d="M124.859 26.4689C125.06 27.506 125.531 28.3109 126.273 28.8836C127.029 29.4563 127.956 29.7427 129.053 29.7427C130.582 29.7427 131.694 29.1777 132.389 28.0477L134.104 29.0229C132.976 30.772 131.277 31.6466 129.007 31.6466C127.168 31.6466 125.67 31.0738 124.512 29.9284C123.369 28.7675 122.797 27.3047 122.797 25.5401C122.797 23.791 123.361 22.336 124.489 21.1751C125.616 20.0142 127.076 19.4337 128.868 19.4337C130.567 19.4337 131.949 20.0374 133.015 21.2448C134.096 22.4366 134.637 23.8762 134.637 25.5634C134.637 25.8575 134.613 26.1593 134.567 26.4689H124.859ZM128.868 21.3376C127.786 21.3376 126.89 21.6472 126.18 22.2664C125.469 22.87 125.029 23.6827 124.859 24.7043H132.598C132.428 23.6053 131.995 22.7694 131.3 22.1967C130.605 21.624 129.794 21.3376 128.868 21.3376Z" fill="#A6D5CC"/>
<path d="M146.523 15.0919H148.539V31.3447H146.523V29.348C145.519 30.8804 144.059 31.6466 142.144 31.6466C140.522 31.6466 139.14 31.0584 137.997 29.882C136.854 28.6901 136.282 27.2428 136.282 25.5401C136.282 23.8375 136.854 22.3979 137.997 21.2215C139.14 20.0297 140.522 19.4337 142.144 19.4337C144.059 19.4337 145.519 20.1999 146.523 21.7323V15.0919ZM142.399 29.6962C143.573 29.6962 144.553 29.3015 145.341 28.5121C146.129 27.7072 146.523 26.7165 146.523 25.5401C146.523 24.3638 146.129 23.3808 145.341 22.5914C144.553 21.7865 143.573 21.3841 142.399 21.3841C141.24 21.3841 140.267 21.7865 139.48 22.5914C138.692 23.3808 138.298 24.3638 138.298 25.5401C138.298 26.7165 138.692 27.7072 139.48 28.5121C140.267 29.3015 141.24 29.6962 142.399 29.6962Z" fill="#A6D5CC"/>
<path d="M163.779 19.4337C165.401 19.4337 166.783 20.0297 167.926 21.2215C169.069 22.3979 169.641 23.8375 169.641 25.5401C169.641 27.2428 169.069 28.6901 167.926 29.882C166.783 31.0584 165.401 31.6466 163.779 31.6466C161.864 31.6466 160.404 30.8804 159.4 29.348V31.3447H157.385V15.0919H159.4V21.7323C160.404 20.1999 161.864 19.4337 163.779 19.4337ZM163.524 29.6962C164.683 29.6962 165.656 29.3015 166.444 28.5121C167.231 27.7072 167.625 26.7165 167.625 25.5401C167.625 24.3638 167.231 23.3808 166.444 22.5914C165.656 21.7865 164.683 21.3841 163.524 21.3841C162.35 21.3841 161.37 21.7865 160.582 22.5914C159.794 23.3808 159.4 24.3638 159.4 25.5401C159.4 26.7165 159.794 27.7072 160.582 28.5121C161.37 29.3015 162.35 29.6962 163.524 29.6962Z" fill="#A6D5CC"/>
<path d="M179.68 19.7356H181.834L177.108 32.0645C176.614 33.3802 175.918 34.3786 175.023 35.0597C174.142 35.7562 173.123 36.0658 171.964 35.9884V34.1077C173.385 34.2161 174.428 33.4266 175.092 31.7394L175.301 31.2983L170.25 19.7356H172.405L176.343 28.8372L179.68 19.7356Z" fill="#A6D5CC"/>
<path fill-rule="evenodd" clip-rule="evenodd" d="M216.185 31.3447H235V25.0564H222.519V21.3802H235V5.12334H212.482V0H206.147V5.12738H189.821V11.4157H189.866L206.042 31.3447L206.139 31.248V31.3447H212.465V11.4157H228.65V15.0919H216.185V31.3447ZM206.139 21.5616L197.816 11.4157H206.139V21.5616Z" fill="white"/>
</svg>
