<?xml version="1.0" encoding="utf-8"?><svg viewBox="0 0 235 36" xmlns="http://www.w3.org/2000/svg" xmlns:xlink="http://www.w3.org/1999/xlink"><style>:root>svg{display:none}:root>svg:target{display:block}</style><svg viewBox="0 0 235 36" id="42-logo" xmlns="http://www.w3.org/2000/svg"><path d="M12.511 19.434c1.298 0 2.348.425 3.151 1.277.803.836 1.205 1.973 1.205 3.413v7.22H14.85v-7.15c0-.898-.232-1.595-.695-2.09-.463-.495-1.081-.743-1.853-.743-.865 0-1.56.294-2.086.882-.51.573-.764 1.455-.764 2.647v6.455H7.437v-7.151c0-.898-.224-1.595-.672-2.09-.432-.495-1.027-.743-1.784-.743-.85 0-1.56.294-2.131.882-.556.588-.834 1.47-.834 2.647v6.455H0v-11.61h2.016v1.556c.787-1.238 1.938-1.857 3.452-1.857 1.56 0 2.695.658 3.406 1.973.803-1.315 2.015-1.973 3.637-1.973zm16.743.302h2.015v11.609h-2.015v-1.997c-1.004 1.532-2.464 2.299-4.38 2.299-1.621 0-3.003-.589-4.146-1.765-1.144-1.192-1.715-2.64-1.715-4.342 0-1.703.571-3.142 1.714-4.319 1.143-1.191 2.526-1.787 4.148-1.787 1.915 0 3.375.766 4.379 2.298v-1.996zm-4.124 9.96c1.174 0 2.154-.395 2.942-1.184.788-.805 1.182-1.796 1.182-2.972s-.394-2.16-1.182-2.949c-.788-.805-1.768-1.207-2.942-1.207-1.159 0-2.132.402-2.92 1.207-.787.79-1.181 1.773-1.181 2.95 0 1.175.394 2.166 1.181 2.971.788.79 1.761 1.184 2.92 1.184zm14.962-10.262c1.36 0 2.448.433 3.267 1.3.819.851 1.228 2.012 1.228 3.483v7.128h-2.016v-7.012c0-.944-.255-1.672-.764-2.183-.51-.526-1.213-.79-2.109-.79-1.004 0-1.815.318-2.432.953-.618.619-.927 1.579-.927 2.879v6.153h-2.016v-11.61h2.016v1.672c.819-1.315 2.07-1.973 3.753-1.973zm15.302.302h2.016v11.609h-2.016v-1.672c-.819 1.316-2.07 1.974-3.753 1.974-1.36 0-2.448-.426-3.267-1.277-.819-.867-1.228-2.036-1.228-3.506v-7.128h2.016v7.011c0 .945.255 1.68.764 2.206.51.511 1.213.766 2.109.766 1.004 0 1.815-.31 2.432-.928.618-.635.927-1.602.927-2.903v-6.152zm11.039-2.996c-2.039-.17-3.058.712-3.058 2.647v.349h3.058v1.95h-3.058v9.659h-2.016v-9.66h-1.854v-1.95h1.854v-.348c0-1.563.432-2.747 1.297-3.552.88-.805 2.14-1.153 3.777-1.045v1.95zm10.493 2.996h2.016v11.609h-2.016v-1.997c-1.004 1.532-2.463 2.299-4.379 2.299-1.622 0-3.004-.589-4.147-1.765-1.143-1.192-1.715-2.64-1.715-4.342 0-1.703.572-3.142 1.715-4.319 1.143-1.191 2.525-1.787 4.147-1.787 1.916 0 3.375.766 4.38 2.298v-1.996zm-4.124 9.96c1.174 0 2.155-.395 2.942-1.184.788-.805 1.182-1.796 1.182-2.972s-.394-2.16-1.181-2.949c-.788-.805-1.77-1.207-2.943-1.207-1.158 0-2.132.402-2.92 1.207-.787.79-1.18 1.773-1.18 2.95 0 1.175.393 2.166 1.18 2.971.788.79 1.762 1.184 2.92 1.184zm14.638 1.951c-1.745 0-3.197-.58-4.355-1.742-1.159-1.176-1.738-2.631-1.738-4.365 0-1.733.58-3.18 1.738-4.342 1.158-1.176 2.61-1.764 4.355-1.764 1.143 0 2.17.278 3.082.836a5.1 5.1 0 012.039 2.205l-1.692.976a3.42 3.42 0 00-1.367-1.486c-.602-.372-1.29-.558-2.062-.558-1.158 0-2.131.395-2.919 1.184-.772.79-1.158 1.773-1.158 2.95 0 1.16.386 2.135 1.158 2.925.788.79 1.76 1.184 2.92 1.184.772 0 1.467-.178 2.084-.534a3.728 3.728 0 001.414-1.486l1.714.998a5.721 5.721 0 01-2.131 2.206c-.927.542-1.954.813-3.082.813zm13.505-9.961h-3.081v6.292c0 .573.108.983.324 1.23.232.233.58.357 1.043.372.463 0 1.035-.015 1.714-.046v1.81c-1.76.233-3.05.094-3.869-.417-.818-.526-1.228-1.51-1.228-2.949v-6.292h-2.293v-1.95h2.293v-2.647l2.016-.604v3.25h3.081v1.95zm10.448-1.95h2.016v11.609h-2.016v-1.672c-.819 1.316-2.07 1.974-3.753 1.974-1.36 0-2.449-.426-3.267-1.277-.819-.867-1.228-2.036-1.228-3.506v-7.128h2.015v7.011c0 .945.255 1.68.765 2.206.51.511 1.213.766 2.108.766 1.004 0 1.815-.31 2.433-.928.618-.635.927-1.602.927-2.903v-6.152zm7.1 1.95c.664-1.44 1.869-2.16 3.614-2.16v2.114c-.988-.047-1.838.216-2.548.789-.711.573-1.066 1.494-1.066 2.763v6.153h-2.016v-11.61h2.016v1.95zm6.366 4.783c.201 1.037.672 1.842 1.414 2.415.756.572 1.683.859 2.78.859 1.529 0 2.641-.565 3.336-1.695l1.715.975c-1.128 1.749-2.827 2.624-5.097 2.624-1.839 0-3.337-.573-4.495-1.719-1.143-1.16-1.715-2.623-1.715-4.388 0-1.749.564-3.204 1.692-4.365 1.127-1.16 2.587-1.741 4.379-1.741 1.699 0 3.081.603 4.147 1.81 1.081 1.193 1.622 2.632 1.622 4.32 0 .294-.024.595-.07.905h-9.708zm4.009-5.131c-1.082 0-1.978.31-2.688.928-.711.604-1.151 1.417-1.321 2.438h7.739c-.17-1.099-.603-1.935-1.298-2.507-.695-.573-1.506-.86-2.432-.86zm17.655-6.246h2.016v16.253h-2.016v-1.997c-1.004 1.532-2.464 2.299-4.379 2.299-1.622 0-3.004-.589-4.147-1.765-1.143-1.192-1.715-2.64-1.715-4.342 0-1.703.572-3.142 1.715-4.319 1.143-1.191 2.525-1.787 4.147-1.787 1.915 0 3.375.766 4.379 2.298v-6.64zm-4.124 14.604c1.174 0 2.154-.395 2.942-1.184.788-.805 1.182-1.796 1.182-2.972s-.394-2.16-1.182-2.949c-.788-.805-1.768-1.207-2.942-1.207-1.159 0-2.132.402-2.919 1.207-.788.79-1.182 1.773-1.182 2.95 0 1.175.394 2.166 1.182 2.971.787.79 1.76 1.184 2.919 1.184zm21.38-10.262c1.622 0 3.004.596 4.147 1.787 1.143 1.177 1.715 2.616 1.715 4.32 0 1.702-.572 3.15-1.715 4.341-1.143 1.176-2.525 1.765-4.147 1.765-1.915 0-3.375-.767-4.379-2.299v1.997h-2.015V15.092h2.015v6.64c1.004-1.532 2.464-2.298 4.379-2.298zm-.255 10.262c1.159 0 2.132-.395 2.92-1.184.787-.805 1.181-1.796 1.181-2.972s-.394-2.16-1.181-2.949c-.788-.805-1.761-1.207-2.92-1.207-1.174 0-2.154.402-2.942 1.207-.788.79-1.182 1.773-1.182 2.95 0 1.175.394 2.166 1.182 2.971.788.79 1.768 1.184 2.942 1.184zm16.156-9.96h2.154l-4.726 12.329c-.494 1.315-1.19 2.314-2.085 2.995-.881.696-1.9 1.006-3.059.928v-1.88c1.421.108 2.464-.681 3.128-2.369l.209-.44-5.051-11.563h2.155l3.938 9.101 3.337-9.101z"/><path fill-rule="evenodd" clip-rule="evenodd" d="M216.185 31.345H235v-6.289h-12.481V21.38H235V5.123h-22.518V0h-6.335v5.127h-16.326v6.289h.045l16.176 19.929.097-.097v.097h6.326v-19.93h16.185v3.677h-12.465v16.253zm-10.046-9.783l-8.323-10.146h8.323v10.146z"/></svg></svg>